{"title":"Son In Law 1993 DvDrip XviD AC3 greenbud1969","uid":11803070,"size":1483620738,"categoryP":"video","categoryS":"movies","magnet":"?xt=urn:btih:92239b43eda59532f162c8c8383cba3557d1f8b6&amp;dn=Son+In+Law+1993+DvDrip+XviD+AC3+greenbud1969&amp;tr=udp%3A%2F%2Ftracker.openbittorrent.com%3A80&amp;tr=udp%3A%2F%2Fopen.demonii.com%3A1337&amp;tr=udp%3A%2F%2Ftracker.coppersurfer.tk%3A6969&amp;tr=udp%3A%2F%2Fexodus.desync.com%3A6969","seeders":5,"leechers":1,"uploader":"greenbud1969","files":4,"time":1428485769,"description":"General\nComplete name                            : Son In Law 1993 DvDrip XviD AC3 greenbud1969\nFormat                                   : AVI\nFormat/Info                              : Audio Video Interleave\nFile size                                : 1.37 GiB\nDuration                                 : 1h 35mn\nOverall bit rate                         : 2 056 Kbps\nWriting application                      : VirtualDubMod 1.5.4.1 (build 2178/release)\nWriting library                          : VirtualDubMod build 2178/release\n\nVideo\nID                                       : 0\nFormat                                   : MPEG-4 Visual\nFormat profile                           : Advanced Simple@L5\nFormat settings, BVOP                    : 1\nFormat settings, QPel                    : No\nFormat settings, GMC                     : No warppoints\nFormat settings, Matrix                  : Custom\nCodec ID                                 : XVID\nCodec ID/Hint                            : XviD\nDuration                                 : 1h 35mn\nBit rate                                 : 1 857 Kbps\nWidth                                    : 720 pixels\nHeight                                   : 416 pixels\nDisplay aspect ratio                     : 1.731\nFrame rate                               : 23.976 fps\nColor space                              : YUV\nChroma subsampling                       : 4:2:0\nBit depth                                : 8 bits\nScan type                                : Progressive\nCompression mode                         : Lossy\nBits/(Pixel*Frame)                       : 0.259\nStream size                              : 1.24 GiB (90%)\nWriting library                          : XviD 64\n\nAudio\nID                                       : 1\nFormat                                   : AC-3\nFormat/Info                              : Audio Coding 3\nFormat profile                           : Dolby Digital\nMode extension                           : CM (complete main)\nFormat settings, Endianness              : Big\nCodec ID                                 : 2000\nDuration                                 : 1h 35mn\nBit rate mode                            : Constant\nBit rate                                 : 192 Kbps\nChannel(s)                               : 2 channels\nChannel positions                        : Front: L R\nSampling rate                            : 48.0 KHz\nBit depth                                : 16 bits\nCompression mode                         : Lossy\nStream size                              : 131 MiB (9%)\nAlignment                                : Split accross interleaves\nInterleave, duration                     : 96 ms (2.30 video frames)\nInterleave, preload duration             : 96 ms\nLanguage                                 : English\n\n\nIMDb Link:  &lt;a href=&quot; http://www.imdb.com/title/tt0108186/&quot; rel=&quot;nofollow&quot; target=&quot;_NEW&quot;&gt; http://www.imdb.com/title/tt0108186/&lt;/a&gt;\n\nMiddle America will never be the same when comedian Pauly Shore travels to the Midwest and becomes the Son-In-Law. Shore stars as Crawl, L.A.'s funkiest college student, who's hilariously out of his element when he spends Thanksgiving at the family farm of a straitlaced college co-ed (Carla Gugino). Crawl's unlike anything the Midwesterns have ever seen-outside the barn that is! But before long, Crawl's plowing his way into their hearts with his outrageous antics and offbeat attempts at farming. Get ready for a truckload of laughs and a half-ton of hysteria with this totally irreverent comedy!\n\n\nNotes\n\nIf your want to convert this movie or any of my other releases I recommend using ConvertXtoDVD or you can burn as a data disc with any programs such as CyberLink Power2Go, Roxio or Nero \n\n\nAll stand-alone divx players compatible\n\n\nSample and Optional English .srt Included\n\n\nScreenshots &amp; Thumbnail\n\n    &lt;a href=&quot;\nhttp://lookpic.com/O/i2/227/9a8R8cgo.jpeg&quot; rel=&quot;nofollow&quot; target=&quot;_NEW&quot;&gt;\nhttp://lookpic.com/O/i2/227/9a8R8cgo.jpeg&lt;/a&gt;\n &lt;a href=&quot;\nhttp://lookpic.com/O/i2/1566/LBsOM0yh.jpeg&quot; rel=&quot;nofollow&quot; target=&quot;_NEW&quot;&gt;\nhttp://lookpic.com/O/i2/1566/LBsOM0yh.jpeg&lt;/a&gt;\n &lt;a href=&quot;\nhttp://lookpic.com/O/i2/658/7ILtkRfA.jpeg&quot; rel=&quot;nofollow&quot; target=&quot;_NEW&quot;&gt;\nhttp://lookpic.com/O/i2/658/7ILtkRfA.jpeg&lt;/a&gt;\n &lt;a href=&quot;\nhttp://lookpic.com/O/i2/1948/akFVc7mU.jpeg&quot; rel=&quot;nofollow&quot; target=&quot;_NEW&quot;&gt;\nhttp://lookpic.com/O/i2/1948/akFVc7mU.jpeg&lt;/a&gt;\n &lt;a href=&quot;\nhttp://lookpic.com/O/i2/1415/BZpqUjOr.jpeg&quot; rel=&quot;nofollow&quot; target=&quot;_NEW&quot;&gt;\nhttp://lookpic.com/O/i2/1415/BZpqUjOr.jpeg&lt;/a&gt;\n &lt;a href=&quot;\nhttp://lookpic.com/O/i2/1086/epxDScDE.jpeg&quot; rel=&quot;nofollow&quot; target=&quot;_NEW&quot;&gt;\nhttp://lookpic.com/O/i2/1086/epxDScDE.jpeg&lt;/a&gt;\n &lt;a href=&quot;\nhttp://lookpic.com/O/i2/29/NwV1oTyg.jpeg&quot; rel=&quot;nofollow&quot; target=&quot;_NEW&quot;&gt;\nhttp://lookpic.com/O/i2/29/NwV1oTyg.jpeg&lt;/a&gt;\n\n\nGREETZ\n\n\nBlackjesus, Hive-CM8, ViP3R, THC, SANTi, CRYS, AQOS, EVO, playXD, SuperNova, MiLLENiUM, MAJESTiC, FUM, AFG and respect to all pirate groups and encoders past and present. Sharing is caring.\n\n\nALSO IF YOU HAVE ANY REQUESTS DON'T HESITATE TO ASK. I MIGHT HAVE WHAT YOUR LOOKING FOR. YOU NEVER KNOW. IT NEVER HURTS TO ASK. EMAIL ME AT greenbud1969 AT hotmail dot com OR LEAVE REQUESTS IN COMMENTS","torrent":{"xt":"urn:btih:92239b43eda59532f162c8c8383cba3557d1f8b6","amp;dn":"Son+In+Law+1993+DvDrip+XviD+AC3+greenbud1969","amp;tr":["udp%3A%2F%2Ftracker.openbittorrent.com%3A80","udp%3A%2F%2Fopen.demonii.com%3A1337","udp%3A%2F%2Ftracker.coppersurfer.tk%3A6969","udp%3A%2F%2Fexodus.desync.com%3A6969"],"infoHash":"92239b43eda59532f162c8c8383cba3557d1f8b6","infoHashBuffer":{"type":"Buffer","data":[146,35,155,67,237,165,149,50,241,98,200,200,56,60,186,53,87,209,248,182]},"announce":[],"urlList":[]}}